<svg width="15" height="14" viewBox="0 0 15 14" fill="none" xmlns="http://www.w3.org/2000/svg">
<path fill-rule="evenodd" clip-rule="evenodd" d="M7.47948 0C7.54499 0 7.61041 0.000890307 7.67563 0.0026594C7.15405 0.698036 7.26972 1.59903 8.08436 2.62993C8.20032 2.77667 8.33115 2.92731 8.47685 3.08189L8.55092 3.1595L8.6488 3.25923C8.69322 3.3038 8.73881 3.34868 8.78556 3.39387L8.85662 3.4619L8.96655 3.56484L9.08057 3.66885C9.20421 3.78037 9.33484 3.89373 9.47229 4.00892L9.57668 4.09567L9.71082 4.20507L9.84894 4.31557L9.99114 4.42715L10.1373 4.53982L10.2876 4.65357L10.4419 4.76844L10.6809 4.94277L10.8452 5.06037L11.0994 5.23884L11.2739 5.35919L11.3627 5.41979L11.5432 5.54181L11.6351 5.60323L11.8217 5.72692L12.0124 5.85172L12.2072 5.97763L12.406 6.10466L12.6088 6.23281L12.8158 6.36209L13.0268 6.49248L13.2418 6.62401L13.4609 6.75666L13.6841 6.89044L13.9113 7.02535L14.1427 7.16141L14.378 7.2986L14.5 7.36894C14.4756 7.79583 14.4124 8.21243 14.3139 8.61535C13.651 7.63622 12.4141 6.81473 10.6297 6.15454L10.4554 6.09115C10.2205 6.00731 9.97666 5.92615 9.72374 5.84769L9.53236 5.78934L9.33757 5.73201L9.13947 5.67571L9.03906 5.64793L8.83591 5.59312L8.73298 5.5661L8.52477 5.51283C8.4198 5.48645 8.31356 5.46045 8.20605 5.43482L7.7947 5.3385L7.60399 5.29225L7.41737 5.24536L7.23463 5.19784L7.05607 5.14969L6.96821 5.12538L6.79558 5.07629L6.71082 5.05151L6.54422 5.00151L6.46247 4.97629L6.3019 4.9254L6.22316 4.89972L6.06871 4.84795L5.9929 4.82184L5.84447 4.7692L5.77176 4.74267L5.62936 4.68919L5.55967 4.66223L5.49095 4.63514L5.35662 4.58056L5.29091 4.55306L5.16261 4.49767C5.06793 4.45593 4.97657 4.41374 4.8887 4.37112L4.8019 4.32836L4.68973 4.2709C4.06541 3.94388 3.63539 3.59289 3.40026 3.22414C3.01201 2.6152 3.15644 1.8748 3.92583 0.954246C4.9685 0.347696 6.18302 0 7.47948 0ZM2.58945 3.79463C2.31298 3.35891 2.19326 2.90054 2.22308 2.42334L2.18825 2.46321C1.54051 3.21506 1.05049 4.10559 0.769236 5.08404C1.09934 5.87398 1.87989 6.56401 3.13452 7.15739L3.26601 7.21843L3.33305 7.24869L3.46961 7.30869C3.56176 7.34846 3.65624 7.38778 3.75295 7.42664L3.89973 7.48458C3.97389 7.51338 4.04941 7.54193 4.1263 7.57022L4.28153 7.62646L4.36055 7.65431L4.52103 7.70952L4.68491 7.76405C4.74012 7.78211 4.79591 7.80007 4.85219 7.8179L5.02307 7.87106L5.19726 7.92355L5.28571 7.94954L5.46514 8.00101L5.64807 8.05181L5.8345 8.10191L5.92898 8.12672L6.12056 8.17582L6.31564 8.22425L6.51432 8.272L6.88057 8.35782L7.09315 8.40919L7.19793 8.43509L7.45532 8.50043L7.70639 8.56664L7.90264 8.62024L8.18938 8.70173L8.37542 8.75677L8.55738 8.81241L8.73526 8.86864L8.85987 8.90917C9.10695 8.99054 9.3416 9.07376 9.5638 9.15892L9.71737 9.21884L9.79261 9.24904L9.94006 9.30993L10.0123 9.34062L10.0835 9.37146L10.2229 9.43365L10.336 9.48597C10.4104 9.521 10.483 9.55634 10.5538 9.59201L10.679 9.65652L10.7566 9.69794C11.2943 9.98878 11.712 10.3 12.0112 10.6341C12.3552 11.0181 12.543 11.4252 12.5821 11.8464C13.0839 11.3252 13.5054 10.7267 13.8269 10.0705C13.5569 8.72712 12.1085 7.64919 9.38038 6.82277L9.18792 6.76552L8.99138 6.70909L8.79057 6.65347C8.72301 6.63506 8.65468 6.6168 8.58567 6.59866L8.37659 6.54466C8.30621 6.5268 8.23506 6.50907 8.16323 6.49147L7.94579 6.4391L7.69443 6.38039L7.49381 6.33239L7.29698 6.28361L7.19997 6.25892L7.00868 6.20898L6.9145 6.18371L6.82118 6.15824L6.63748 6.10672L6.54698 6.08066L6.36891 6.02793L6.28124 6.00125L6.1087 5.94731L5.97136 5.90288C5.65361 5.79856 5.35608 5.68979 5.07877 5.57639L4.93433 5.51613L4.85151 5.48046C3.75606 5.00286 3.0025 4.44556 2.58945 3.79463ZM0.515649 6.59611C1.50595 7.66365 3.25657 8.51956 5.72629 9.1582L5.95286 9.21566L6.18333 9.27192L6.41768 9.32699L6.52003 9.35073L6.72162 9.39856L6.96793 9.45895L7.20782 9.52001L7.39522 9.56932L7.57854 9.61906L7.75768 9.66919L7.93284 9.71973L8.10391 9.7706L8.2709 9.82192L8.35284 9.84778L8.51371 9.89968L8.63161 9.93876L8.74728 9.97813L8.93488 10.0442L8.97162 10.0574L9.15154 10.1242L9.32504 10.1915L9.39269 10.2185L9.52479 10.2728L9.58933 10.3002L9.7153 10.355C10.4173 10.6665 10.921 10.9933 11.2236 11.3301C11.6652 11.8216 11.6555 12.345 11.11 13.009C10.1354 13.5939 9.00554 13.9493 7.79617 13.9999C7.68644 13.7332 7.52528 13.4534 7.31134 13.1618C7.20121 13.0118 7.0764 12.8572 6.93702 12.6983L6.86606 12.6185L6.77226 12.5158L6.67448 12.4119L6.57271 12.3069C6.40971 12.1407 6.23202 11.9703 6.03966 11.7952L5.94227 11.7073L5.81474 11.5944L5.68323 11.4802L5.54773 11.3648L5.40835 11.2481L5.3371 11.1894L5.19169 11.071L5.04229 10.9513L4.85003 10.8L4.65144 10.6467L4.48815 10.5226L4.32087 10.3974L4.1496 10.271L3.92983 10.1111L3.70393 9.94935L3.51867 9.81852L3.32942 9.68639L3.13622 9.55305L2.8389 9.35069L2.63569 9.21421L2.42848 9.07646L2.21727 8.93747L1.94765 8.76193L1.67175 8.58442L1.33244 8.36878L1.10121 8.22343L0.74687 8.00302L0.548027 7.88077C0.51631 7.61252 0.5 7.33959 0.5 7.06288C0.5 6.94783 0.502819 6.83344 0.508388 6.71978L0.515649 6.59611ZM0.903819 9.28833L1.02304 9.36387L1.34766 9.572L1.55911 9.70911L1.7666 9.84489L1.97012 9.97942L2.16967 10.1126L2.36526 10.2444L2.55687 10.3749L2.74451 10.5041L2.92818 10.632L3.10786 10.7586L3.28358 10.8838L3.45527 11.0076L3.62303 11.1302L3.78682 11.2514L4.02505 11.4307L4.25425 11.6069L4.4021 11.7228L4.54595 11.8373L4.68582 11.9504L4.82171 12.0622L4.8881 12.1175L5.01796 12.2274L5.14383 12.3358L5.26572 12.4428L5.38363 12.5484L5.44107 12.6007L5.55305 12.7043L5.66094 12.8066L5.76475 12.9075C5.81005 12.952 5.85417 12.9961 5.89714 13.0399L5.96061 13.1052L6.05246 13.2019C6.24716 13.41 6.41366 13.6085 6.55188 13.7972C6.6032 13.867 6.64986 13.9346 6.69224 13.9998C3.97762 13.6691 1.74315 11.7953 0.903819 9.28833ZM14.4999 6.1924C14.1656 3.20577 11.9656 0.785836 9.09735 0.134725L9.04019 0.165063C8.76609 0.314503 8.58821 0.477135 8.50345 0.645839C8.35804 0.935473 8.46311 1.35603 8.91033 1.94302L8.9774 2.02899L9.04593 2.11312L9.09618 2.17273C9.16441 2.25259 9.23761 2.33399 9.31576 2.41694L9.40149 2.50641L9.44571 2.55158L9.49101 2.59704L9.58422 2.68885L9.65674 2.75849L9.73139 2.82877L9.83413 2.92352L9.94075 3.01943L10.0512 3.11652L10.1654 3.21476L10.2834 3.31416L10.3438 3.3643L10.4676 3.46545L10.5951 3.56775L10.7263 3.67121L10.8614 3.77582L11.0003 3.88159L11.143 3.9885L11.2895 4.09656L11.4397 4.20577L11.5937 4.31613L11.7516 4.42762L11.9131 4.54025L12.0786 4.65402L12.2477 4.76892L12.4206 4.88497L12.5974 5.00214L12.7779 5.12044L12.9621 5.23988L13.1502 5.36044L13.342 5.48211L13.5377 5.60492L13.737 5.72884L13.9402 5.85389L14.2519 6.04353L14.4999 6.1924Z" fill="#9B9EB7"/>
</svg>
