<svg width="44" height="44" viewBox="0 0 44 44" fill="none" xmlns="http://www.w3.org/2000/svg">
<path d="M24.0408 19.958L4.64498 39.3538M26.1201 4.724C28.6069 6.37409 30.9971 8.31944 33.2307 10.553C35.4835 12.8058 37.4431 15.218 39.1023 17.728M16.3947 13.6209L10.5252 11.6644C9.84921 11.4391 9.10467 11.5825 8.56074 12.0427L2.72737 16.9786C1.53315 17.9891 1.87243 19.9122 3.34035 20.453L8.86755 22.4893M21.348 34.9694L23.3843 40.4966C23.9251 41.9645 25.8481 42.3038 26.8586 41.1096L31.7946 35.2762C32.2548 34.7323 32.3982 33.9877 32.1729 33.3118L30.2164 27.4422M37.0025 2.1357L26.9851 3.80526C25.9034 3.98554 24.9113 4.5172 24.1622 5.31802L10.6605 19.7509C7.16073 23.492 7.25808 29.3343 10.8805 32.9568C14.5029 36.5792 20.3453 36.6765 24.0864 33.1768L38.5193 19.6751C39.3201 18.926 39.8517 17.9338 40.032 16.8521L41.7016 6.83477C42.1622 4.07108 39.7662 1.67508 37.0025 2.1357Z" stroke="#FD5D5D" stroke-width="3.0625" stroke-linecap="round" stroke-linejoin="round"/>
</svg>
