<svg width="18" height="17" viewBox="0 0 18 17" fill="none" xmlns="http://www.w3.org/2000/svg">
<path d="M8.40253 1.8778C8.59461 1.48869 8.69064 1.29413 8.82102 1.23197C8.93445 1.17789 9.06623 1.17789 9.17966 1.23197C9.31004 1.29413 9.40607 1.48869 9.59814 1.8778L11.4204 5.56944C11.4771 5.68432 11.5054 5.74176 11.5469 5.78635C11.5836 5.82584 11.6276 5.85783 11.6764 5.88056C11.7316 5.90623 11.795 5.91549 11.9218 5.93402L15.9978 6.5298C16.427 6.59253 16.6417 6.6239 16.741 6.72874C16.8274 6.81995 16.868 6.94529 16.8516 7.06985C16.8327 7.21302 16.6773 7.36436 16.3666 7.66702L13.4182 10.5387C13.3263 10.6282 13.2803 10.673 13.2507 10.7263C13.2244 10.7734 13.2076 10.8252 13.2011 10.8788C13.1937 10.9393 13.2046 11.0025 13.2263 11.129L13.922 15.1851C13.9953 15.6129 14.032 15.8269 13.9631 15.9538C13.9031 16.0642 13.7965 16.1417 13.6729 16.1646C13.5308 16.1909 13.3388 16.0899 12.9546 15.8879L9.31064 13.9716C9.1971 13.9119 9.14034 13.882 9.08053 13.8703C9.02757 13.8599 8.97311 13.8599 8.92015 13.8703C8.86034 13.882 8.80358 13.9119 8.69004 13.9716L5.0461 15.8879C4.66192 16.0899 4.46984 16.1909 4.3278 16.1646C4.20423 16.1417 4.09759 16.0642 4.03761 15.9538C3.96866 15.8269 4.00535 15.6129 4.07872 15.1851L4.7744 11.129C4.79609 11.0025 4.80693 10.9393 4.79959 10.8788C4.7931 10.8252 4.77625 10.7734 4.75 10.7263C4.72034 10.673 4.67439 10.6282 4.58248 10.5387L1.63412 7.66702C1.32338 7.36436 1.168 7.21302 1.1491 7.06985C1.13265 6.94529 1.17329 6.81995 1.2597 6.72874C1.35902 6.6239 1.57363 6.59253 2.00286 6.5298L6.07892 5.93402C6.20568 5.91549 6.26906 5.90623 6.32426 5.88056C6.37313 5.85783 6.41713 5.82584 6.45381 5.78635C6.49525 5.74176 6.5236 5.68432 6.5803 5.56944L8.40253 1.8778Z" fill="#FFD263" stroke="#FFD263" stroke-width="1.5" stroke-linecap="round" stroke-linejoin="round"/>
</svg>
